<?xml version="1.0" standalone="no"?>
<!DOCTYPE svg PUBLIC "-//W3C//DTD SVG 20010904//EN"
 "http://www.w3.org/TR/2001/REC-SVG-20010904/DTD/svg10.dtd">
<svg version="1.0" xmlns="http://www.w3.org/2000/svg"
 width="3056.000000pt" height="3056.000000pt" viewBox="0 0 3056.000000 3056.000000"
 preserveAspectRatio="xMidYMid meet">
<metadata>
Created by potrace 1.14, written by Peter Selinger 2001-2017
</metadata>
<g transform="translate(0.000000,3056.000000) scale(0.100000,-0.100000)"
fill="#000000" stroke="none">
<path d="M14807 27194 c-1 -1 -65 -5 -142 -9 -77 -3 -153 -8 -170 -10 -29 -3
-139 -13 -219 -20 -22 -2 -62 -6 -90 -10 -112 -14 -132 -16 -156 -20 -14 -2
-45 -7 -70 -10 -99 -13 -327 -54 -430 -76 -25 -5 -55 -12 -67 -14 -13 -3 -31
-7 -40 -9 -10 -2 -59 -14 -109 -25 -50 -11 -104 -25 -120 -31 -16 -6 -31 -11
-34 -11 -17 1 -184 -45 -330 -91 -741 -232 -1426 -565 -2060 -1002 -111 -76
-379 -275 -449 -333 -270 -221 -398 -338 -631 -572 -192 -193 -323 -334 -427
-461 -12 -14 -45 -54 -75 -90 -132 -158 -310 -399 -435 -585 -74 -110 -263
-413 -263 -420 0 -2 -21 -39 -46 -82 -112 -189 -308 -592 -419 -862 -161 -393
-336 -959 -399 -1291 -2 -14 -11 -56 -19 -95 -9 -38 -18 -90 -22 -115 -3 -25
-10 -63 -15 -85 -5 -22 -12 -62 -15 -90 -4 -27 -8 -57 -10 -65 -2 -8 -7 -35
-10 -60 -3 -25 -8 -63 -11 -85 -11 -80 -13 -91 -19 -150 -3 -33 -8 -78 -10
-100 -5 -39 -12 -121 -20 -235 -16 -223 -23 -749 -11 -870 3 -25 7 -99 11
-166 3 -66 7 -131 10 -145 2 -13 6 -59 10 -102 4 -43 8 -88 10 -100 2 -12 6
-49 10 -82 13 -123 56 -395 91 -570 146 -738 444 -1550 804 -2190 104 -184
111 -196 178 -305 383 -621 796 -1118 1383 -1666 87 -81 313 -270 454 -380
860 -669 1861 -1146 2925 -1395 174 -41 239 -54 355 -74 22 -3 60 -10 85 -15
48 -10 104 -19 160 -26 19 -2 64 -8 100 -14 79 -12 141 -19 320 -35 30 -3 71
-7 90 -10 235 -26 964 -27 1225 0 22 2 72 7 110 10 39 3 84 8 100 10 17 2 53
7 80 10 88 10 237 30 300 40 216 35 456 85 675 141 130 33 161 41 350 97 76
22 332 108 370 124 8 3 20 7 25 9 25 6 322 127 440 179 185 80 513 246 699
353 88 51 163 92 167 92 4 0 9 3 11 8 2 4 35 27 73 50 100 61 94 57 254 166
123 83 202 141 440 321 52 39 289 238 375 315 117 105 441 424 503 496 10 12
50 57 90 100 39 44 99 113 133 154 35 41 75 89 91 107 25 28 260 338 329 433
14 19 62 91 107 160 45 69 86 130 91 135 11 14 210 347 250 420 77 142 263
522 325 666 94 219 198 501 268 723 33 105 61 199 64 210 2 12 18 72 35 135
88 324 168 744 205 1086 2 28 7 68 10 90 6 55 13 143 21 255 3 52 8 122 10
155 6 89 6 604 0 725 -3 58 -8 141 -11 185 -5 75 -7 102 -20 223 -3 26 -7 72
-10 102 -3 30 -8 66 -10 80 -2 14 -7 50 -10 80 -4 30 -15 109 -26 175 -11 66
-22 131 -23 145 -2 14 -6 34 -9 45 -3 11 -8 36 -11 55 -30 199 -149 655 -250
962 -42 128 -127 361 -146 403 -5 11 -39 92 -75 180 -65 157 -246 531 -323
670 -70 126 -83 148 -169 290 -151 250 -271 429 -439 651 -90 120 -263 335
-329 408 -5 6 -46 52 -89 101 -112 127 -489 501 -626 621 -516 453 -1044 810
-1640 1107 -258 129 -327 160 -580 262 -196 78 -440 165 -580 207 -78 23 -199
58 -220 64 -8 2 -76 19 -150 39 -122 32 -467 106 -564 121 -21 3 -46 7 -55 9
-9 1 -52 8 -96 15 -44 6 -91 13 -105 15 -45 7 -183 24 -245 30 -33 3 -78 8
-100 10 -22 3 -78 7 -125 10 -47 3 -119 8 -160 11 -69 6 -677 13 -683 8z m708
-58 c33 -2 101 -7 150 -11 50 -3 104 -8 120 -10 17 -2 61 -7 98 -10 37 -4 77
-8 89 -10 11 -3 46 -7 77 -10 60 -7 101 -13 141 -20 14 -2 45 -7 70 -10 25 -3
56 -8 70 -10 14 -3 36 -8 50 -10 14 -3 54 -10 90 -16 36 -6 115 -22 175 -36
61 -13 121 -26 135 -29 61 -12 280 -71 447 -120 300 -89 648 -217 908 -334 70
-31 483 -236 545 -270 331 -182 765 -464 980 -637 8 -7 56 -44 105 -83 229
-182 411 -345 635 -570 318 -317 515 -544 761 -876 126 -169 396 -578 432
-654 4 -8 16 -28 27 -45 11 -16 23 -36 26 -43 4 -7 34 -61 66 -120 53 -94 229
-446 271 -542 50 -115 98 -229 120 -285 176 -450 303 -872 388 -1300 17 -82
32 -161 34 -175 2 -14 9 -52 15 -85 6 -33 12 -76 15 -95 3 -19 7 -44 9 -56 2
-12 7 -45 11 -75 3 -30 8 -65 10 -79 2 -14 6 -50 10 -80 3 -30 8 -71 10 -90 3
-19 7 -69 10 -110 3 -41 7 -93 10 -115 23 -217 23 -873 0 -1115 -2 -25 -7 -81
-10 -125 -4 -44 -8 -91 -10 -105 -2 -14 -7 -54 -10 -90 -8 -73 -9 -86 -25
-190 -6 -41 -13 -86 -15 -100 -4 -34 -24 -150 -29 -176 -2 -12 -7 -37 -10 -55
-68 -421 -287 -1152 -466 -1554 -9 -22 -35 -80 -56 -130 -40 -96 -239 -496
-300 -605 -539 -961 -1264 -1786 -2144 -2436 -115 -85 -314 -224 -372 -259 -9
-5 -80 -50 -159 -99 -574 -356 -1223 -642 -1888 -831 -91 -26 -172 -48 -180
-50 -9 -2 -43 -10 -76 -19 -122 -31 -443 -96 -605 -121 -19 -3 -46 -7 -60 -10
-14 -3 -45 -7 -70 -10 -25 -3 -76 -9 -115 -14 -111 -16 -156 -21 -225 -27 -36
-2 -83 -7 -105 -9 -246 -27 -1035 -27 -1240 0 -16 2 -64 7 -105 11 -164 14
-239 23 -400 49 -14 2 -45 6 -70 10 -298 42 -791 161 -1135 273 -153 51 -428
150 -500 182 -22 10 -85 37 -140 60 -309 132 -623 293 -930 479 -110 66 -405
258 -415 270 -3 3 -12 11 -21 16 -68 42 -286 207 -427 322 -266 218 -555 489
-762 713 -47 50 -164 180 -195 215 -67 77 -236 288 -326 408 -54 73 -103 137
-108 143 -5 6 -64 94 -131 195 -67 101 -131 196 -141 211 -11 15 -19 30 -19
33 0 4 -12 25 -27 48 -38 57 -47 74 -79 132 -14 28 -32 57 -39 65 -7 8 -23 38
-36 65 -13 28 -26 52 -29 55 -3 3 -42 78 -87 167 -99 194 -203 422 -273 598
-28 72 -55 139 -60 150 -9 21 -35 93 -70 190 -133 367 -285 983 -336 1355 -3
25 -7 52 -9 60 -1 8 -6 40 -10 70 -7 57 -10 79 -19 145 -3 22 -8 65 -10 95 -3
30 -8 84 -11 120 -32 318 -36 860 -10 1200 9 127 16 208 20 235 2 17 7 55 10
85 3 30 8 71 10 90 3 19 7 58 10 85 3 28 9 73 15 100 5 28 12 70 15 95 9 67
14 98 30 175 8 39 16 81 18 95 18 99 104 462 128 535 5 17 31 104 59 195 266
887 720 1749 1317 2502 397 502 876 967 1398 1358 467 350 1022 672 1530 889
94 40 179 76 190 81 183 81 868 299 1025 326 14 3 33 7 42 10 9 3 25 6 35 8
10 3 50 12 88 21 61 14 216 45 310 60 17 3 55 10 85 15 72 13 250 37 325 45
33 3 71 8 85 10 14 3 59 7 100 10 41 4 91 8 110 10 19 2 103 7 185 10 83 4
152 9 153 10 5 5 626 -3 697 -9z"/>
<path d="M14720 26669 c-126 -9 -179 -16 -275 -39 -115 -26 -169 -42 -178 -50
-9 -8 36 -109 75 -170 12 -19 28 -45 34 -57 63 -114 359 -426 529 -558 50 -38
98 -77 108 -86 9 -9 28 -22 41 -29 26 -13 45 -4 122 59 17 14 51 42 75 61 152
121 316 283 428 423 106 131 224 338 204 358 -4 4 -51 19 -103 32 -93 24 -133
32 -215 43 -22 3 -51 7 -65 10 -41 7 -281 5 -340 -2 -66 -9 -81 -9 -185 0
-127 11 -154 11 -255 5z"/>
<path d="M13030 26055 c-158 -44 -208 -75 -241 -150 -10 -22 -65 -206 -123
-410 -207 -729 -298 -1051 -311 -1100 -7 -27 -32 -115 -55 -194 -22 -79 -41
-163 -42 -186 -1 -76 56 -146 132 -162 17 -4 146 -10 360 -18 80 -3 197 -7
260 -10 150 -6 316 -13 521 -20 l167 -7 223 177 c123 97 238 186 254 200 17
13 48 37 70 54 22 17 45 34 50 39 6 4 105 84 222 176 219 174 244 201 248 272
5 64 -29 114 -132 194 -52 41 -101 80 -107 85 -6 6 -40 33 -76 61 -89 69
-1045 822 -1145 901 -124 99 -189 122 -275 98z"/>
<path d="M17008 26055 c-26 -6 -72 -31 -104 -56 -133 -101 -178 -137 -525
-410 -200 -158 -467 -368 -594 -468 -400 -314 -398 -312 -398 -402 0 -64 30
-103 159 -205 60 -47 118 -93 129 -103 11 -9 49 -39 85 -66 36 -27 74 -57 85
-67 11 -9 70 -55 130 -103 61 -47 117 -91 125 -98 8 -7 56 -44 105 -82 50 -38
92 -72 95 -75 3 -3 39 -32 80 -63 l75 -58 180 6 c99 3 209 8 245 10 36 2 151
7 255 11 552 18 621 22 658 38 67 28 105 93 99 170 -1 15 -25 108 -52 205
-199 705 -337 1194 -385 1361 -31 107 -58 206 -61 219 -11 54 -48 123 -83 154
-24 22 -66 43 -117 60 -103 34 -130 37 -186 22z"/>
<path d="M11535 25696 c-212 -77 -420 -204 -601 -366 -28 -25 -80 -61 -115
-80 -98 -54 -245 -168 -341 -266 -100 -102 -190 -212 -186 -226 5 -15 95 -62
195 -102 130 -52 237 -83 343 -101 19 -3 58 -10 85 -15 93 -17 191 -26 370
-36 66 -3 135 -7 152 -8 18 -1 37 0 42 3 14 9 95 298 115 416 3 17 8 41 11 55
3 14 8 43 11 65 3 22 7 47 9 55 18 67 26 377 12 475 -13 87 -28 155 -35 154
-4 -1 -34 -11 -67 -23z"/>
<path d="M18534 25682 c-4 -20 -8 -46 -11 -57 -26 -138 -21 -398 12 -591 9
-49 18 -102 21 -119 3 -16 12 -57 21 -90 8 -33 17 -69 19 -80 2 -11 19 -72 37
-135 l34 -114 69 2 c237 7 444 27 584 57 14 3 36 7 49 10 162 31 476 154 488
192 9 26 -179 235 -310 344 -61 52 -198 144 -257 174 -19 10 -60 41 -90 69
-84 77 -194 157 -303 220 -54 31 -99 56 -102 56 -2 0 -32 13 -67 29 -61 27
-104 44 -160 61 -26 8 -28 6 -34 -28z"/>
<path d="M15444 23748 c-193 -210 -329 -467 -380 -718 -18 -89 -24 -285 -12
-395 38 -341 208 -683 562 -1125 85 -107 269 -324 287 -340 15 -13 203 -256
263 -340 74 -103 208 -324 245 -405 60 -127 80 -177 109 -265 40 -121 57 -194
88 -371 20 -108 26 -383 11 -464 -4 -22 -10 -56 -13 -75 -15 -87 -80 -308 -95
-325 -5 -5 -9 -16 -9 -24 0 -16 -131 -289 -156 -325 -8 -12 -54 -82 -102 -156
-72 -109 -176 -249 -275 -370 -7 -8 -26 -33 -42 -55 -16 -22 -32 -42 -36 -45
-13 -12 -231 -315 -305 -425 -79 -117 -192 -305 -226 -375 -9 -19 -24 -50 -33
-67 -8 -18 -14 -33 -12 -33 2 0 39 42 82 93 169 196 280 301 580 551 184 153
419 385 580 571 33 39 63 72 66 75 30 26 249 338 249 355 0 2 13 26 29 54 49
82 120 273 146 388 22 99 30 151 41 258 5 47 5 337 0 380 -2 17 -7 66 -10 109
-4 43 -10 88 -12 100 -2 12 -6 35 -8 51 -29 208 -131 493 -243 678 -57 95
-126 200 -145 221 -10 11 -18 23 -18 27 0 4 -6 14 -12 21 -7 7 -47 58 -88 113
-177 235 -258 327 -536 610 -130 133 -281 295 -324 351 -142 180 -272 381
-334 515 -124 267 -132 560 -24 883 32 98 120 290 146 319 33 37 2 15 -34 -25z"/>
<path d="M9733 23689 c-66 -12 -99 -34 -156 -107 -75 -95 -90 -131 -85 -206 5
-63 24 -117 580 -1621 16 -44 41 -113 56 -152 32 -91 69 -137 124 -155 83 -28
88 -25 672 366 l541 362 17 60 c48 172 177 627 234 827 36 126 67 236 69 245
2 9 11 42 19 71 25 92 6 169 -51 209 -51 35 -46 34 -383 47 -188 7 -440 17
-785 30 -272 11 -375 15 -535 20 -91 3 -190 7 -220 9 -30 2 -74 -1 -97 -5z"/>
<path d="M20328 23695 c-2 -1 -91 -6 -198 -9 -334 -11 -451 -15 -575 -21 -109
-5 -208 -9 -500 -20 -55 -2 -181 -6 -280 -10 -242 -8 -305 -13 -340 -27 -95
-38 -120 -126 -78 -267 9 -31 18 -60 19 -66 1 -5 18 -66 37 -135 20 -69 75
-262 122 -430 47 -168 92 -327 100 -355 8 -27 22 -76 31 -109 17 -61 35 -84
97 -121 9 -5 236 -157 504 -337 269 -180 501 -331 516 -337 40 -16 103 -14
137 4 49 26 77 74 143 255 192 524 321 874 348 945 17 44 32 85 33 90 2 6 6
17 9 25 4 8 16 42 27 75 12 33 25 69 30 80 42 102 140 384 148 426 12 61 -6
128 -47 179 -17 21 -31 42 -31 47 0 16 -62 74 -99 92 -32 17 -143 36 -153 26z"/>
<path d="M12575 22970 c-21 -72 -68 -238 -71 -254 -2 -12 -11 -55 -19 -96 -45
-223 -61 -510 -43 -735 3 -33 6 -75 7 -93 l1 -32 37 42 c129 147 262 275 423
412 29 24 102 78 205 153 150 108 441 270 614 341 30 12 52 24 50 27 -22 22
-425 161 -519 179 -14 2 -50 10 -80 16 -67 13 -91 17 -150 25 -25 3 -52 8 -60
10 -25 7 -200 18 -297 19 -76 2 -94 -1 -98 -14z"/>
<path d="M17387 22984 c-1 -1 -40 -5 -87 -8 -90 -7 -281 -33 -315 -43 -11 -3
-29 -7 -40 -8 -59 -7 -279 -74 -414 -126 -85 -33 -157 -62 -159 -64 -3 -3 4
-8 14 -11 49 -18 296 -140 378 -186 328 -185 661 -457 895 -731 22 -27 41 -45
41 -40 1 4 4 51 8 103 13 181 6 473 -13 570 -3 14 -7 43 -10 65 -9 74 -50 271
-65 315 -5 14 -18 57 -29 95 l-21 71 -90 0 c-50 -1 -92 -1 -93 -2z"/>
<path d="M8584 22413 c-110 -167 -208 -404 -249 -601 -8 -40 -22 -87 -31 -103
-51 -100 -127 -341 -139 -447 -3 -26 -8 -56 -10 -67 -2 -11 -7 -71 -10 -134
l-7 -114 64 7 c58 6 114 17 224 45 54 14 202 71 289 111 133 62 417 233 531
318 l21 16 -47 126 c-101 269 -194 461 -309 635 -14 22 -28 42 -31 45 -3 3
-19 23 -35 45 -37 50 -185 205 -196 205 -4 0 -33 -39 -65 -87z"/>
<path d="M21414 22418 c-92 -96 -199 -243 -273 -375 -28 -51 -51 -95 -51 -97
0 -2 -20 -46 -44 -97 -78 -169 -160 -385 -152 -405 5 -14 99 -80 221 -155 245
-152 438 -242 630 -294 102 -28 110 -30 209 -41 l59 -7 -7 114 c-8 140 -17
203 -51 356 -10 46 -78 229 -102 276 -14 28 -27 62 -29 76 -15 92 -67 272
-101 351 -15 34 -78 161 -105 210 -30 56 -108 170 -116 170 -5 0 -45 -37 -88
-82z"/>
<path d="M14799 22018 c-110 -139 -320 -354 -449 -459 -36 -30 -67 -56 -70
-59 -3 -3 -59 -50 -125 -105 -195 -161 -498 -470 -657 -670 -241 -302 -362
-556 -419 -885 -15 -82 -19 -481 -7 -590 22 -188 32 -245 65 -370 65 -248 167
-455 357 -724 12 -17 26 -37 33 -45 7 -9 60 -79 119 -156 163 -212 216 -273
442 -504 313 -319 409 -431 541 -628 196 -295 262 -477 264 -728 0 -108 -5
-171 -23 -250 -5 -22 -11 -54 -14 -71 -11 -63 -79 -239 -129 -338 -29 -56 -54
-105 -56 -111 -15 -36 159 181 214 266 105 162 175 338 209 524 15 79 16 316
2 395 -61 339 -197 618 -490 1000 -96 126 -154 196 -322 390 -234 271 -417
534 -538 777 -31 62 -56 114 -56 118 0 3 -9 24 -19 48 -40 86 -84 246 -116
412 -29 158 -40 375 -24 496 15 108 17 121 44 224 86 332 255 640 556 1015
219 273 494 666 607 866 49 85 106 204 99 204 -2 0 -19 -19 -38 -42z"/>
<path d="M12015 21330 c-238 -62 -373 -113 -571 -215 -116 -60 -334 -194 -381
-234 l-23 -19 24 -68 c56 -162 128 -324 209 -469 47 -83 145 -240 174 -275
108 -135 197 -240 204 -240 5 0 9 19 10 43 0 23 2 49 4 57 1 8 5 42 8 75 5 51
45 275 61 340 2 11 11 49 20 85 60 255 201 597 355 864 28 49 50 90 49 91 -2
1 -66 -14 -143 -35z"/>
<path d="M17990 21367 c0 -3 21 -41 46 -84 120 -201 285 -578 325 -743 4 -19
20 -78 34 -130 22 -80 38 -155 59 -265 2 -11 7 -42 10 -68 4 -27 9 -59 12 -70
4 -24 17 -161 18 -189 0 -10 3 -18 6 -17 11 1 233 287 283 365 121 189 230
411 298 613 16 47 29 86 29 87 0 1 -39 29 -87 61 -190 129 -408 244 -605 317
-81 30 -308 97 -375 111 -10 2 -26 6 -35 10 -10 4 -18 5 -18 2z"/>
<path d="M9965 20855 c-35 -10 -292 -179 -1331 -877 -155 -103 -294 -201 -309
-216 -50 -48 -66 -102 -67 -212 0 -90 3 -103 28 -150 30 -56 48 -70 279 -224
72 -47 135 -90 141 -95 6 -5 58 -40 115 -78 57 -38 329 -219 604 -403 275
-184 518 -340 539 -348 54 -18 110 -7 153 31 40 35 51 59 117 243 26 71 50
138 55 149 9 20 28 73 97 265 19 52 37 102 41 110 3 8 7 17 8 20 1 3 5 12 8
20 18 44 167 458 167 465 0 7 -290 801 -423 1158 -26 71 -77 133 -115 141 -58
13 -68 13 -107 1z"/>
<path d="M20086 20855 c-46 -16 -73 -40 -96 -85 -15 -30 -166 -434 -275 -735
-60 -165 -76 -210 -85 -230 -5 -11 -27 -71 -50 -134 l-42 -113 32 -92 c18 -50
38 -104 46 -121 7 -16 19 -50 28 -75 8 -25 60 -169 116 -320 56 -151 129 -349
162 -440 33 -91 69 -177 80 -192 48 -68 129 -92 201 -60 23 11 202 126 397
257 195 131 546 366 780 523 234 156 438 298 453 316 46 50 56 84 57 197 2
118 -9 154 -62 208 -18 18 -168 124 -333 234 -707 473 -870 582 -875 588 -3 3
-9 8 -15 10 -5 2 -99 64 -208 137 -109 72 -208 132 -220 133 -12 0 -29 2 -38
4 -8 1 -32 -3 -53 -10z"/>
<path d="M14989 20656 c-2 -2 -30 -6 -62 -10 -282 -29 -581 -215 -756 -469
-123 -179 -181 -366 -186 -597 -3 -132 1 -179 29 -310 10 -47 73 -198 110
-264 123 -220 355 -413 596 -496 36 -12 74 -24 85 -26 301 -68 599 -26 836
116 145 88 265 199 355 330 56 82 130 235 149 310 34 138 40 187 39 330 -2
247 -75 462 -223 655 -158 207 -411 367 -646 409 -16 3 -41 8 -55 11 -28 7
-266 16 -271 11z m177 -107 c33 -1 80 -8 107 -15 26 -7 47 -10 47 -8 0 2 39
-10 88 -27 415 -145 683 -531 674 -971 -1 -42 -3 -87 -6 -100 -2 -13 -7 -41
-11 -63 -53 -300 -278 -589 -561 -719 -220 -100 -474 -118 -704 -49 -148 44
-294 128 -404 232 -57 55 -146 162 -146 177 0 4 -6 15 -14 23 -20 22 -74 133
-98 200 -44 124 -66 354 -45 461 3 14 8 43 12 65 33 192 167 418 328 555 121
103 287 189 414 215 21 5 45 10 53 12 8 2 49 6 90 10 41 3 77 7 78 9 2 1 12 1
22 -1 10 -2 44 -5 76 -6z"/>
<path d="M14868 20386 c-248 -65 -462 -245 -568 -480 -53 -116 -73 -219 -73
-366 2 -322 190 -617 484 -760 248 -120 552 -111 789 22 252 142 418 400 438
682 20 270 -66 499 -258 686 -103 101 -268 195 -375 214 -17 3 -46 10 -65 16
-63 19 -275 11 -372 -14z m306 -70 c65 -7 128 -21 161 -36 11 -5 42 -18 69
-30 163 -68 320 -232 391 -408 42 -104 54 -177 51 -307 -4 -138 -6 -151 -47
-256 -73 -190 -213 -337 -401 -423 -114 -52 -197 -69 -325 -68 -288 3 -563
179 -682 436 -37 82 -49 119 -64 207 -65 373 166 744 534 857 36 11 90 23 120
27 30 4 55 8 56 9 3 2 71 -2 137 -8z"/>
<path d="M14759 20138 c-102 -57 -214 -171 -262 -266 -37 -75 -39 -97 -7 -105
23 -6 38 11 71 78 13 28 59 84 104 130 46 45 102 91 130 104 71 35 86 50 75
71 -17 31 -36 29 -111 -12z"/>
<path d="M14984 19770 c-95 -43 -158 -165 -100 -191 59 -27 179 75 180 153 1
52 -24 64 -80 38z"/>
<path d="M15087 19602 c-38 -26 -56 -52 -57 -84 0 -34 21 -37 67 -8 37 22 56
52 51 83 -4 28 -26 32 -61 9z"/>
<path d="M15505 19416 c-111 -53 -221 -159 -269 -262 -33 -70 -40 -115 -26
-160 34 -102 206 -65 349 74 104 102 162 223 147 305 -12 67 -108 87 -201 43z"/>
<path d="M11614 19263 c-64 -76 -167 -205 -195 -243 -73 -99 -218 -365 -284
-520 -43 -101 -95 -252 -90 -261 6 -9 144 -101 238 -158 133 -81 390 -201 525
-246 65 -21 346 -95 349 -91 1 1 -26 51 -60 111 -182 320 -305 645 -381 1010
-13 66 -27 140 -31 165 -3 25 -8 56 -10 70 -6 32 -18 170 -17 193 0 9 -1 17
-2 17 -2 0 -21 -21 -42 -47z"/>
<path d="M18491 19259 c-1 -30 -3 -64 -5 -75 -2 -10 -7 -46 -10 -79 -20 -176
-92 -478 -161 -675 -74 -213 -199 -480 -300 -640 -15 -23 -25 -43 -23 -45 7
-7 314 77 408 111 146 54 442 204 570 289 63 42 121 82 128 89 35 34 -168 487
-325 724 -47 71 -167 225 -254 325 l-26 30 -2 -54z"/>
<path d="M8144 18049 c12 -222 70 -462 153 -634 13 -27 32 -89 43 -137 38
-173 95 -325 178 -473 54 -95 120 -195 130 -195 12 0 93 81 159 157 115 134
237 341 328 558 25 61 50 119 55 130 24 53 70 200 66 210 -2 7 -55 46 -118 87
-363 242 -666 371 -941 403 l-59 7 6 -113z"/>
<path d="M21850 18139 c-192 -40 -401 -124 -614 -248 -49 -28 -91 -51 -93 -51
-2 0 -9 -5 -16 -10 -7 -6 -52 -37 -102 -70 -143 -93 -140 -90 -125 -136 35
-109 137 -354 195 -468 66 -130 170 -297 222 -357 106 -124 168 -184 187 -184
17 0 111 150 170 270 54 109 119 287 130 355 3 19 10 50 15 68 5 17 8 32 6 32
-2 0 8 28 24 63 69 155 119 319 137 451 3 22 7 43 9 46 2 4 7 64 11 133 l7
127 -34 -1 c-19 0 -77 -10 -129 -20z"/>
<path d="M10225 17647 c-29 -16 -48 -37 -67 -77 -22 -44 -283 -741 -358 -955
-10 -27 -84 -229 -164 -447 -156 -424 -164 -456 -131 -534 8 -20 27 -51 42
-69 16 -18 39 -49 53 -68 41 -58 99 -81 205 -81 80 0 368 9 590 19 44 2 154 6
245 10 91 3 212 8 270 10 100 5 219 9 520 20 206 8 267 13 292 26 48 24 77 62
89 113 12 56 19 23 -91 416 -29 102 -56 199 -60 215 -4 17 -24 86 -45 155 -20
69 -37 130 -39 135 -1 6 -26 97 -56 203 l-55 194 -520 347 c-286 192 -539 358
-562 370 -54 27 -107 27 -158 -2z"/>
<path d="M19773 17650 c-33 -15 -1057 -693 -1085 -719 -4 -3 -9 -17 -12 -31
-4 -23 -78 -285 -126 -452 -129 -443 -211 -742 -214 -781 -3 -45 14 -100 42
-130 42 -47 72 -52 352 -62 91 -3 212 -8 270 -10 58 -3 168 -7 245 -10 77 -3
199 -7 270 -10 292 -12 666 -26 790 -30 153 -4 201 16 276 117 97 132 101 175
30 373 -128 360 -603 1644 -620 1675 -44 81 -132 110 -218 70z"/>
<path d="M17690 17344 c0 -28 -248 -278 -415 -420 -138 -116 -377 -282 -510
-354 -160 -87 -284 -147 -370 -180 l-30 -12 40 -19 c181 -84 518 -183 698
-204 23 -3 58 -7 77 -10 81 -12 129 -15 255 -20 l133 -5 21 63 c21 65 65 237
75 297 3 19 8 46 11 60 3 14 8 45 11 70 3 25 8 54 10 65 24 119 23 649 -1 673
-3 3 -5 1 -5 -4z"/>
<path d="M12449 17315 c-1 -16 -3 -59 -6 -95 -14 -175 -6 -437 17 -580 5 -30
11 -72 14 -92 9 -58 47 -228 62 -278 8 -25 21 -68 30 -97 l17 -52 121 4 c137
4 273 16 351 31 10 2 37 6 59 10 75 11 251 53 331 79 135 44 337 127 328 135
-4 4 -24 13 -43 20 -53 20 -320 153 -368 183 -23 15 -44 27 -46 27 -9 0 -222
144 -301 203 -166 126 -339 284 -492 452 -71 78 -73 79 -74 50z"/>
<path d="M13496 15303 c-1 -1 -80 -5 -176 -8 -96 -3 -218 -8 -270 -10 -52 -2
-162 -7 -245 -10 -412 -14 -450 -19 -493 -58 -58 -53 -67 -121 -33 -236 11
-36 52 -181 91 -321 39 -140 80 -284 91 -320 10 -36 21 -74 24 -85 2 -11 11
-45 20 -75 17 -59 44 -155 50 -180 3 -8 27 -94 55 -190 28 -96 53 -182 55
-190 19 -81 116 -403 128 -427 29 -56 73 -87 169 -120 106 -35 163 -37 225 -4
28 14 794 609 933 724 8 7 56 44 105 82 50 38 92 72 95 75 3 3 86 70 185 147
244 192 249 196 259 266 8 50 -23 122 -67 158 -18 14 -165 131 -327 259 -162
127 -304 239 -315 248 -11 10 -61 48 -110 87 -50 38 -97 75 -105 82 -8 7 -44
35 -79 63 l-64 50 -99 -2 c-55 -2 -100 -4 -102 -5z"/>
<path d="M16155 15074 c-365 -287 -326 -256 -520 -410 -88 -69 -167 -131 -175
-138 -9 -6 -28 -28 -44 -48 -55 -74 -32 -173 56 -243 28 -22 56 -45 62 -50 6
-6 29 -24 51 -40 22 -17 42 -32 45 -35 3 -3 111 -89 240 -190 129 -102 269
-212 311 -245 42 -33 132 -104 200 -157 68 -54 196 -154 284 -224 88 -69 186
-146 218 -171 72 -56 143 -85 194 -78 21 2 75 16 120 31 89 29 131 62 163 123
22 45 523 1807 533 1877 5 36 -14 97 -40 126 -38 44 -89 56 -258 63 -88 3
-200 8 -250 10 -49 2 -157 7 -240 10 -82 3 -206 7 -275 10 -69 3 -181 7 -250
10 l-126 5 -299 -236z"/>
<path d="M11237 14603 c-1 0 -42 -4 -91 -8 -49 -3 -101 -8 -115 -10 -41 -5
-105 -15 -131 -20 -13 -3 -42 -7 -64 -11 -22 -3 -44 -7 -47 -10 -4 -2 -24 -7
-45 -10 -108 -17 -454 -157 -454 -183 0 -17 119 -160 201 -241 105 -105 343
-280 379 -280 5 0 35 -24 67 -53 128 -118 279 -220 435 -295 83 -40 229 -94
236 -88 6 7 20 81 29 159 13 116 7 355 -12 472 -19 113 -24 139 -45 235 -19
84 -40 164 -76 288 l-18 63 -124 -3 c-68 -2 -124 -4 -125 -5z"/>
<path d="M18668 14604 c-30 -52 -115 -403 -142 -584 -11 -71 -20 -207 -20
-290 0 -89 12 -249 20 -261 2 -4 6 -21 8 -39 2 -17 6 -33 8 -35 8 -9 146 43
246 91 153 75 304 177 412 278 25 23 85 66 134 94 111 66 238 164 336 262 84
83 190 211 190 228 0 15 -137 84 -239 121 -156 58 -355 102 -525 116 -39 4
-77 8 -84 11 -28 9 -340 16 -344 8z"/>
<path d="M14977 13370 c-273 -214 -478 -424 -599 -615 -72 -112 -122 -215
-111 -226 11 -11 214 -64 283 -73 147 -21 312 -25 440 -11 83 8 78 9 205 -3
121 -12 298 -6 391 12 12 3 37 7 55 10 76 13 96 17 149 33 69 21 67 20 85 22
23 2 19 19 -25 104 -125 244 -345 488 -675 746 -49 39 -94 71 -100 70 -5 0
-50 -31 -98 -69z"/>
<path d="M5540 10293 c-500 -72 -859 -390 -918 -812 -9 -62 -8 -203 2 -275 39
-299 258 -559 642 -763 60 -32 111 -58 114 -59 3 0 32 -13 65 -28 33 -15 74
-34 90 -41 17 -8 95 -43 173 -79 225 -101 307 -157 337 -229 18 -43 19 -68 4
-120 -49 -179 -349 -221 -638 -90 -111 50 -297 184 -371 266 -13 15 -27 27
-31 27 -4 0 -89 -105 -190 -232 -101 -128 -186 -235 -189 -238 -14 -13 -60
-80 -60 -87 0 -13 81 -95 156 -158 208 -177 510 -316 759 -350 28 -3 65 -9 82
-11 54 -8 243 -8 323 0 565 57 959 437 975 941 8 271 -74 494 -247 667 -153
153 -320 253 -648 388 -340 139 -407 172 -474 231 -95 84 -101 183 -16 266 54
53 128 76 250 79 92 2 113 0 172 -22 120 -46 156 -98 153 -221 -1 -40 1 -74 4
-74 3 -1 165 -2 359 -3 l352 -1 1 45 c6 362 -3 446 -61 559 -155 304 -683 496
-1170 424z"/>
<path d="M12229 10306 c-2 -2 -31 -6 -64 -9 -234 -24 -473 -103 -681 -226
-328 -194 -571 -496 -693 -859 -26 -77 -41 -138 -66 -267 -23 -121 -23 -416 0
-540 21 -112 29 -148 46 -210 133 -471 474 -863 909 -1047 146 -62 261 -96
375 -113 22 -4 47 -8 55 -10 63 -17 349 -24 450 -11 25 3 68 9 95 12 136 16
387 98 520 169 292 156 518 380 673 665 74 135 150 351 167 475 3 22 8 46 10
53 28 83 25 487 -5 602 -5 19 -11 49 -14 65 -9 57 -47 179 -81 259 -106 257
-271 472 -501 656 -50 40 -175 116 -262 160 -159 79 -332 134 -497 156 -22 3
-47 8 -55 11 -16 6 -375 15 -381 9z m306 -750 c38 -8 94 -25 120 -36 190 -78
309 -175 412 -333 156 -239 190 -551 92 -847 -163 -495 -692 -732 -1133 -509
-96 49 -190 121 -253 197 -27 31 -51 59 -54 62 -15 11 -108 199 -127 255 -118
345 -31 751 212 988 126 123 247 183 461 230 27 6 233 0 270 -7z"/>
<path d="M15755 10290 c-384 -60 -683 -207 -940 -465 -247 -246 -410 -581
-452 -925 -10 -82 -10 -388 0 -455 32 -216 90 -397 183 -574 68 -129 134 -226
209 -307 5 -6 26 -29 46 -51 31 -34 143 -134 205 -183 88 -70 266 -165 403
-217 117 -44 294 -85 426 -99 118 -12 391 -6 455 11 8 2 33 6 54 10 117 17
344 90 431 138 11 6 38 19 59 30 188 92 415 291 554 487 119 168 237 440 266
611 3 19 8 45 11 59 3 14 8 45 11 70 3 25 7 56 10 70 5 30 5 300 0 350 -8 71
-38 236 -47 253 -6 9 -7 17 -5 17 11 0 -69 211 -114 301 -77 154 -164 273
-290 399 -129 129 -133 133 -244 207 -158 106 -380 200 -562 238 -217 46 -469
55 -669 25z m420 -734 c11 -3 40 -10 64 -16 177 -43 379 -198 483 -370 94
-157 131 -292 132 -480 1 -146 -6 -207 -35 -304 -115 -386 -430 -639 -793
-638 -55 1 -112 3 -126 6 -96 21 -133 32 -196 61 -149 68 -266 169 -356 307
-47 72 -66 108 -109 213 -8 19 -25 84 -35 130 -39 177 -19 406 48 570 115 279
341 466 633 524 49 10 251 8 290 -3z"/>
<path d="M7214 10245 c-2 -5 -2 -156 -1 -335 l2 -325 102 -1 c125 -2 148 -7
169 -39 15 -23 17 -130 17 -1255 l0 -1230 401 2 401 3 0 620 0 620 538 3 c295
1 537 -1 538 -5 0 -5 1 -286 1 -626 l1 -617 401 2 401 3 0 1225 c1 953 4 1230
13 1247 20 37 49 45 166 46 l111 2 0 320 c1 176 -1 327 -3 335 -3 14 -55 15
-425 15 -367 -1 -429 -4 -479 -18 -98 -29 -156 -97 -176 -203 -5 -28 -9 -274
-9 -548 0 -273 -3 -499 -6 -503 -9 -8 -1056 -7 -1065 1 -4 4 -7 238 -8 519 0
589 -1 595 -78 671 -78 78 -88 80 -580 81 -283 0 -430 -3 -432 -10z"/>
<path d="M17926 10250 c-2 -3 -3 -153 -2 -335 l1 -330 113 -2 c122 -2 157 -13
167 -56 3 -12 7 -521 8 -1132 3 -1013 4 -1114 20 -1161 21 -63 71 -118 134
-147 l48 -22 820 -3 c892 -4 921 -2 998 49 46 30 89 96 103 159 8 39 13 717 4
728 -3 4 -163 8 -357 7 l-351 0 -4 -112 c-5 -166 11 -157 -285 -161 -251 -3
-294 3 -315 41 -9 17 -12 290 -13 1132 -1 1260 3 1187 -80 1270 -76 76 -93 78
-583 80 -233 0 -425 -2 -426 -5z"/>
<path d="M20711 10250 c-4 -3 -7 -153 -6 -335 l0 -330 168 0 167 0 0 -926 0
-927 -142 0 c-79 -1 -154 -1 -168 -2 l-25 0 0 -332 0 -333 713 -3 c566 -2 712
0 713 10 0 15 0 638 -1 653 0 6 -61 9 -165 8 l-165 -2 -1 32 c-1 41 -1 1799 0
1812 1 6 62 9 166 8 l165 -2 1 42 c0 57 0 609 0 622 -1 10 -1406 15 -1420 5z"/>
<path d="M22865 10250 c-1 -3 -3 -555 -2 -1227 0 -1128 -2 -1225 -17 -1248
-23 -35 -57 -46 -140 -44 -39 0 -85 1 -103 0 l-32 -1 0 -336 0 -335 447 3
c445 3 447 3 494 26 87 44 132 109 146 209 9 66 8 1265 -1 1333 -3 25 -9 79
-12 121 -3 41 -8 92 -10 112 -3 20 -3 37 -1 37 2 0 27 -45 55 -101 63 -123
160 -292 215 -375 23 -34 81 -124 131 -200 49 -77 165 -254 256 -394 91 -140
196 -302 234 -360 37 -58 113 -174 168 -257 l100 -153 358 0 359 0 0 1225 c0
1319 -2 1274 49 1290 11 3 70 6 131 7 l110 1 -2 336 -3 336 -409 0 c-445 0
-497 -5 -569 -52 -45 -30 -91 -108 -102 -173 -9 -47 -9 -1256 -1 -1350 4 -41
9 -91 11 -110 2 -19 7 -64 10 -100 l6 -65 -21 40 c-12 22 -43 78 -68 125 -25
47 -62 114 -84 149 -21 34 -38 65 -38 66 0 5 -123 198 -130 205 -3 3 -9 13
-15 22 -9 16 -38 61 -187 291 -26 39 -70 108 -98 152 -28 44 -72 113 -98 152
-26 40 -81 125 -122 189 -41 64 -79 124 -85 133 -34 58 -209 321 -214 322 -20
4 -713 3 -716 -1z"/>
<path d="M18685 6025 c-389 -69 -675 -338 -776 -729 -28 -105 -34 -334 -13
-451 78 -437 395 -757 812 -819 89 -13 253 -14 322 -2 19 4 49 9 65 12 110 20
280 92 385 164 65 44 160 128 160 141 0 5 -32 52 -71 105 -71 93 -72 94 -93
77 -12 -10 -25 -23 -31 -29 -17 -19 -146 -104 -194 -128 -108 -55 -255 -89
-381 -88 -405 3 -719 366 -697 807 15 308 185 554 451 652 165 61 417 48 570
-28 110 -56 146 -109 146 -217 l0 -70 129 0 129 0 -2 132 c-3 157 -17 199 -98
279 -73 72 -224 146 -353 173 -159 34 -337 41 -460 19z"/>
<path d="M7460 5995 c-5 -93 -3 -225 3 -226 4 -1 44 -2 90 -3 l82 -1 0 -857 0
-858 48 -1 c59 -1 102 -1 176 0 l59 1 0 343 c0 188 0 350 1 359 1 15 27 17
264 21 144 2 275 7 290 11 227 56 391 219 442 439 27 118 22 285 -11 385 -42
125 -138 248 -239 307 -55 33 -161 73 -213 81 -69 11 -992 10 -992 -1z m920
-239 c172 -38 272 -183 264 -383 -5 -161 -83 -283 -212 -334 -52 -21 -77 -23
-284 -27 -216 -3 -228 -3 -229 15 -1 22 -1 738 0 738 12 5 437 -4 461 -9z"/>
<path d="M10514 5905 c-20 -55 -47 -127 -59 -160 -21 -54 -319 -857 -400
-1080 -100 -274 -127 -340 -142 -357 -11 -12 -30 -18 -60 -18 l-43 0 -1 -42
c-2 -89 1 -191 6 -197 11 -10 222 -1 260 11 63 21 89 66 180 314 l83 229 360
3 c282 2 361 0 365 -10 2 -7 37 -103 77 -213 40 -110 81 -218 92 -239 45 -89
79 -100 301 -97 l57 1 0 120 0 120 -42 0 c-24 0 -51 7 -61 15 -11 8 -56 116
-108 257 -49 134 -93 252 -99 263 -5 11 -12 31 -15 45 -4 14 -13 39 -20 55 -7
17 -32 82 -55 145 -23 63 -60 162 -82 220 -22 58 -40 110 -42 115 -2 12 -54
151 -66 180 -5 11 -42 110 -82 220 l-74 200 -147 0 -146 0 -37 -100z m216
-311 c16 -60 61 -199 100 -309 40 -110 91 -254 115 -320 l43 -120 -283 0
c-156 0 -287 3 -291 7 -4 4 -1 14 6 23 7 8 10 15 7 15 -3 0 6 30 20 68 14 37
47 128 73 202 27 74 62 172 79 218 25 68 66 203 76 247 1 6 5 27 10 48 4 21 9
36 12 34 2 -3 17 -54 33 -113z"/>
<path d="M12669 6005 c-6 -2 -3 -235 3 -236 4 -1 35 -3 68 -4 33 -1 66 -3 74
-4 8 0 18 -11 22 -23 4 -13 8 -372 9 -798 1 -750 1 -776 20 -815 14 -28 32
-46 60 -59 37 -17 72 -18 508 -18 524 0 537 1 577 59 24 35 25 45 28 200 l4
163 -26 1 c-14 1 -35 1 -46 1 -11 0 -58 0 -103 -1 l-84 -1 2 -71 c3 -116 23
-110 -329 -110 -263 -1 -300 1 -314 15 -15 15 -17 90 -17 799 -1 430 -5 793
-9 807 -11 33 -45 69 -76 83 -18 7 -356 19 -371 12z"/>
<path d="M15811 5995 c-8 -11 -32 -75 -116 -305 -31 -85 -85 -231 -120 -325
-35 -93 -92 -249 -128 -345 -36 -96 -108 -292 -161 -434 -53 -143 -103 -268
-112 -278 -12 -12 -31 -18 -61 -18 l-43 0 0 -122 0 -123 97 2 c136 2 178 10
213 40 41 34 48 48 134 285 41 112 78 211 81 221 7 16 33 17 365 17 l358 0 10
-27 c6 -16 43 -115 81 -220 95 -261 99 -267 170 -299 30 -14 142 -20 254 -15
15 1 17 14 17 121 l0 119 -32 -1 c-77 -3 -78 -2 -163 232 -31 85 -64 175 -74
200 -10 25 -121 324 -247 665 l-228 620 -144 0 c-84 0 -147 -4 -151 -10z m179
-401 c16 -60 47 -158 68 -219 146 -408 182 -507 187 -516 4 -5 0 -10 -7 -10
-22 -2 -568 -4 -568 -3 0 1 41 116 91 256 126 351 158 449 184 568 2 8 4 21 4
29 2 29 12 1 41 -105z"/>
<path d="M20782 5995 c-11 -17 -9 -224 3 -228 5 -2 43 -3 83 -2 42 0 76 -3 80
-9 4 -6 7 -366 7 -801 1 -766 1 -791 20 -830 13 -26 33 -46 58 -58 35 -18 72
-19 536 -19 469 -1 501 1 537 18 65 32 77 70 79 250 1 85 -1 154 -4 155 -29 3
-242 1 -246 -3 -3 -2 -6 -37 -8 -77 -2 -47 -9 -77 -19 -87 -23 -23 -633 -23
-657 0 -13 14 -15 57 -16 311 0 162 3 296 7 296 5 1 158 2 341 3 l332 1 0 120
0 120 -330 0 c-181 0 -335 3 -340 7 -7 4 -10 112 -9 300 1 161 2 295 3 298 0
3 131 5 290 5 228 0 292 -3 305 -14 12 -10 16 -31 16 -93 l0 -79 128 3 127 3
1 140 c0 77 -4 156 -9 175 -10 40 -41 78 -77 93 -34 14 -1229 17 -1238 2z"/>
</g>
</svg>
